# xmcd
#
# Track frame offsets:
#	150
#	20435
#	42447
#	60877
#	99875
#	114100
#	139087
#	151280
#	176195
#	190182
#	210740
#	222020
#
# Disc length: 3013 seconds
#
# Revision: 0
# Processed by: cddbd v1.5.1PL0 Copyright (c) Steve Scherf et al.
# Submitted via: EasyCDDAExtractor 4.6.9.1
#
DISCID=990bc30c
DTITLE=Harmonica Slim and Hosea Leavy - Cold Tacos ans Warm Beer
DYEAR=2000
DGENRE=Blues
TTITLE0=Catfish Blues
TTITLE1=K.C. Douglas Was a Fine Man
TTITLE2=Cold Tacos and Warm Beer
TTITLE3=Cummins Prison Farm
TTITLE4=She Wants to Boogie
TTITLE5=Back Door Man
TTITLE6=The 'Frisco Railroad
TTITLE7=Hey Boss
TTITLE8=Hosea's Boogie
TTITLE9=All Alone Now
TTITLE10=God Didn't Make Honk Tonk Angles
TTITLE11=Don't Want no Woman
EXTD=Fedora Records\n
EXTT0=
EXTT1=
EXTT2=
EXTT3=
EXTT4=
EXTT5=
EXTT6=
EXTT7=
EXTT8=
EXTT9=
EXTT10=
EXTT11=
PLAYORDER=
